<mxfile host="app.diagrams.net" modified="2023-08-31T03:48:23.198Z" agent="Mozilla/5.0 (Windows NT 10.0; Win64; x64) AppleWebKit/537.36 (KHTML, like Gecko) Chrome/116.0.0.0 Safari/537.36" version="21.6.8" etag="6pbNGf16_dv1gcd72Og0" type="github">
  <diagram name="Page-1" id="boVmX1l6FtU1xo-CIUrP">
    <mxGraphModel>
      <root>
        <mxCell id="0" />
        <mxCell id="1" parent="0" />
      </root>
    </mxGraphModel>
  </diagram>
</mxfile>
